<svg xmlns="http://www.w3.org/2000/svg" width="817" height="272"
     viewBox="0 0 817 272" role="img" aria-label="Traiectus 拓扑图">
  <style>
    text { font-family: Menlo, "SF Mono", Consolas, "DejaVu Sans Mono", monospace;
           font-size: 13px; fill: #1f2328; white-space: pre; }
    .s { stroke: #1f2328; stroke-width: 1.15; fill: none; }
    .d { stroke: #1f2328; stroke-width: 1.15; fill: none; stroke-dasharray: 6 3.2; }
    .a { fill: #1f2328; }
    .bg { fill: #f6f8fa; stroke: #d0d7de; stroke-width: 1; }
    @media (prefers-color-scheme: dark) {
      text { fill: #e6edf3; }
      .s, .d { stroke: #e6edf3; }
      .a { fill: #e6edf3; }
      .bg { fill: #161b22; stroke: #30363d; }
    }
  </style>
  <!-- 这张图是按下面这段 ASCII 等比生成的，改图改这里再重新生成：
                      ┌──────────────── 显示器 ─────────────────┐
                      │                                         │
      HDMI            │                                         │ DP
      ┌───────────────┘                                         └────────────────┐
      │                                                                          │
 ┌────┴─────┐                                                  ┌─────────────────┴──┐
 │Windows PC│◄──────── TCP 45789  事件 / 心跳 / 控制 ─────────►│Mac mini            │
 │Traiectus │◄╌╌╌╌╌╌╌╌╌╌ UDP 45790  抢跑帧 KEY / HB ╌╌╌╌╌╌╌╌╌╌►│Traiectus Client    │
 │Server    │◄╌╌╌╌╌╌╌╌╌ UDP 45791  找地址 WHO / HERE ╌╌╌╌╌╌╌╌╌►│找地址 / 注入       │
 └────┬─────┘                                                  └─┬──────────────────┘
      │ 2.4G 接收器 / USB                                        │ 蓝牙 / USB
      └── 鼠标（2.4G） ──┘                                       └── Corsair K70 Pro Mini ──┘
  -->
  <rect class="bg" x="0.5" y="0.5" width="816" height="271" rx="6"/>
  <text x="354.00" y="30.60" textLength="50.40" lengthAdjust="spacing">显示器</text>  <line class="s" x1="211.20" y1="26.00" x2="345.60" y2="26.00"/>  <line class="s" x1="412.80" y1="26.00" x2="555.60" y2="26.00"/>  <line class="s" x1="207.00" y1="26.00" x2="211.20" y2="26.00"/>  <line class="s" x1="207.00" y1="26.00" x2="207.00" y2="36.00"/>  <line class="s" x1="555.60" y1="26.00" x2="559.80" y2="26.00"/>  <line class="s" x1="559.80" y1="26.00" x2="559.80" y2="36.00"/>  <line class="s" x1="207.00" y1="36.00" x2="207.00" y2="56.00"/>  <line class="s" x1="559.80" y1="36.00" x2="559.80" y2="56.00"/>  <text x="68.40" y="70.60" textLength="33.60" lengthAdjust="spacing">HDMI</text>  <text x="572.40" y="70.60" textLength="16.80" lengthAdjust="spacing">DP</text>  <line class="s" x1="207.00" y1="56.00" x2="207.00" y2="76.00"/>  <line class="s" x1="559.80" y1="56.00" x2="559.80" y2="76.00"/>  <line class="s" x1="76.80" y1="86.00" x2="202.80" y2="86.00"/>  <line class="s" x1="564.00" y1="86.00" x2="698.40" y2="86.00"/>  <line class="s" x1="72.60" y1="86.00" x2="76.80" y2="86.00"/>  <line class="s" x1="72.60" y1="86.00" x2="72.60" y2="96.00"/>  <line class="s" x1="202.80" y1="86.00" x2="207.00" y2="86.00"/>  <line class="s" x1="207.00" y1="76.00" x2="207.00" y2="86.00"/>  <line class="s" x1="559.80" y1="86.00" x2="564.00" y2="86.00"/>  <line class="s" x1="559.80" y1="76.00" x2="559.80" y2="86.00"/>  <line class="s" x1="698.40" y1="86.00" x2="702.60" y2="86.00"/>  <line class="s" x1="702.60" y1="86.00" x2="702.60" y2="96.00"/>  <line class="s" x1="72.60" y1="96.00" x2="72.60" y2="116.00"/>  <line class="s" x1="702.60" y1="96.00" x2="702.60" y2="116.00"/>  <line class="s" x1="34.80" y1="126.00" x2="68.40" y2="126.00"/>  <line class="s" x1="76.80" y1="126.00" x2="118.80" y2="126.00"/>  <line class="s" x1="555.60" y1="126.00" x2="698.40" y2="126.00"/>  <line class="s" x1="706.80" y1="126.00" x2="723.60" y2="126.00"/>  <line class="s" x1="30.60" y1="126.00" x2="34.80" y2="126.00"/>  <line class="s" x1="30.60" y1="126.00" x2="30.60" y2="136.00"/>  <line class="s" x1="68.40" y1="126.00" x2="72.60" y2="126.00"/>  <line class="s" x1="72.60" y1="126.00" x2="76.80" y2="126.00"/>  <line class="s" x1="72.60" y1="116.00" x2="72.60" y2="126.00"/>  <line class="s" x1="118.80" y1="126.00" x2="123.00" y2="126.00"/>  <line class="s" x1="123.00" y1="126.00" x2="123.00" y2="136.00"/>  <line class="s" x1="551.40" y1="126.00" x2="555.60" y2="126.00"/>  <line class="s" x1="551.40" y1="126.00" x2="551.40" y2="136.00"/>  <line class="s" x1="698.40" y1="126.00" x2="702.60" y2="126.00"/>  <line class="s" x1="702.60" y1="126.00" x2="706.80" y2="126.00"/>  <line class="s" x1="702.60" y1="116.00" x2="702.60" y2="126.00"/>  <line class="s" x1="723.60" y1="126.00" x2="727.80" y2="126.00"/>  <line class="s" x1="727.80" y1="126.00" x2="727.80" y2="136.00"/>  <text x="34.80" y="150.60" textLength="84.00" lengthAdjust="spacing">Windows PC</text>  <text x="211.20" y="150.60" textLength="243.60" lengthAdjust="spacing">TCP 45789  事件 / 心跳 / 控制</text>  <text x="555.60" y="150.60" textLength="67.20" lengthAdjust="spacing">Mac mini</text>  <line class="s" x1="135.60" y1="146.00" x2="202.80" y2="146.00"/>  <line class="s" x1="463.20" y1="146.00" x2="538.80" y2="146.00"/>  <line class="s" x1="30.60" y1="136.00" x2="30.60" y2="156.00"/>  <line class="s" x1="123.00" y1="136.00" x2="123.00" y2="156.00"/>  <polygon class="a" points="131.40,146.00 135.60,142.40 135.60,149.60"/>  <polygon class="a" points="543.00,146.00 538.80,142.40 538.80,149.60"/>  <line class="s" x1="551.40" y1="136.00" x2="551.40" y2="156.00"/>  <line class="s" x1="727.80" y1="136.00" x2="727.80" y2="156.00"/>  <text x="34.80" y="170.60" textLength="75.60" lengthAdjust="spacing">Traiectus</text>  <text x="228.00" y="170.60" textLength="218.40" lengthAdjust="spacing">UDP 45790  抢跑帧 KEY / HB</text>  <text x="555.60" y="170.60" textLength="134.40" lengthAdjust="spacing">Traiectus Client</text>  <line class="d" x1="135.60" y1="166.00" x2="219.60" y2="166.00"/>  <line class="d" x1="454.80" y1="166.00" x2="538.80" y2="166.00"/>  <line class="s" x1="30.60" y1="156.00" x2="30.60" y2="176.00"/>  <line class="s" x1="123.00" y1="156.00" x2="123.00" y2="176.00"/>  <polygon class="a" points="131.40,166.00 135.60,162.40 135.60,169.60"/>  <polygon class="a" points="543.00,166.00 538.80,162.40 538.80,169.60"/>  <line class="s" x1="551.40" y1="156.00" x2="551.40" y2="176.00"/>  <line class="s" x1="727.80" y1="156.00" x2="727.80" y2="176.00"/>  <text x="34.80" y="190.60" textLength="50.40" lengthAdjust="spacing">Server</text>  <text x="219.60" y="190.60" textLength="235.20" lengthAdjust="spacing">UDP 45791  找地址 WHO / HERE</text>  <text x="555.60" y="190.60" textLength="109.20" lengthAdjust="spacing">找地址 / 注入</text>  <line class="d" x1="135.60" y1="186.00" x2="211.20" y2="186.00"/>  <line class="d" x1="463.20" y1="186.00" x2="538.80" y2="186.00"/>  <line class="s" x1="30.60" y1="176.00" x2="30.60" y2="196.00"/>  <line class="s" x1="123.00" y1="176.00" x2="123.00" y2="196.00"/>  <polygon class="a" points="131.40,186.00 135.60,182.40 135.60,189.60"/>  <polygon class="a" points="543.00,186.00 538.80,182.40 538.80,189.60"/>  <line class="s" x1="551.40" y1="176.00" x2="551.40" y2="196.00"/>  <line class="s" x1="727.80" y1="176.00" x2="727.80" y2="196.00"/>  <line class="s" x1="34.80" y1="206.00" x2="68.40" y2="206.00"/>  <line class="s" x1="76.80" y1="206.00" x2="118.80" y2="206.00"/>  <line class="s" x1="555.60" y1="206.00" x2="564.00" y2="206.00"/>  <line class="s" x1="572.40" y1="206.00" x2="723.60" y2="206.00"/>  <line class="s" x1="30.60" y1="206.00" x2="34.80" y2="206.00"/>  <line class="s" x1="30.60" y1="196.00" x2="30.60" y2="206.00"/>  <line class="s" x1="68.40" y1="206.00" x2="72.60" y2="206.00"/>  <line class="s" x1="72.60" y1="206.00" x2="76.80" y2="206.00"/>  <line class="s" x1="72.60" y1="206.00" x2="72.60" y2="216.00"/>  <line class="s" x1="118.80" y1="206.00" x2="123.00" y2="206.00"/>  <line class="s" x1="123.00" y1="196.00" x2="123.00" y2="206.00"/>  <line class="s" x1="551.40" y1="206.00" x2="555.60" y2="206.00"/>  <line class="s" x1="551.40" y1="196.00" x2="551.40" y2="206.00"/>  <line class="s" x1="564.00" y1="206.00" x2="568.20" y2="206.00"/>  <line class="s" x1="568.20" y1="206.00" x2="572.40" y2="206.00"/>  <line class="s" x1="568.20" y1="206.00" x2="568.20" y2="216.00"/>  <line class="s" x1="723.60" y1="206.00" x2="727.80" y2="206.00"/>  <line class="s" x1="727.80" y1="196.00" x2="727.80" y2="206.00"/>  <text x="85.20" y="230.60" textLength="142.80" lengthAdjust="spacing">2.4G 接收器 / USB</text>  <text x="580.80" y="230.60" textLength="84.00" lengthAdjust="spacing">蓝牙 / USB</text>  <line class="s" x1="72.60" y1="216.00" x2="72.60" y2="236.00"/>  <line class="s" x1="568.20" y1="216.00" x2="568.20" y2="236.00"/>  <text x="102.00" y="250.60" textLength="100.80" lengthAdjust="spacing">鼠标（2.4G）</text>  <text x="597.60" y="250.60" textLength="168.00" lengthAdjust="spacing">Corsair K70 Pro Mini</text>  <line class="s" x1="76.80" y1="246.00" x2="93.60" y2="246.00"/>  <line class="s" x1="211.20" y1="246.00" x2="228.00" y2="246.00"/>  <line class="s" x1="572.40" y1="246.00" x2="589.20" y2="246.00"/>  <line class="s" x1="774.00" y1="246.00" x2="790.80" y2="246.00"/>  <line class="s" x1="72.60" y1="246.00" x2="76.80" y2="246.00"/>  <line class="s" x1="72.60" y1="236.00" x2="72.60" y2="246.00"/>  <line class="s" x1="228.00" y1="246.00" x2="232.20" y2="246.00"/>  <line class="s" x1="232.20" y1="236.00" x2="232.20" y2="246.00"/>  <line class="s" x1="568.20" y1="246.00" x2="572.40" y2="246.00"/>  <line class="s" x1="568.20" y1="236.00" x2="568.20" y2="246.00"/>  <line class="s" x1="790.80" y1="246.00" x2="795.00" y2="246.00"/>  <line class="s" x1="795.00" y1="236.00" x2="795.00" y2="246.00"/>
</svg>
